<svg xmlns="http://www.w3.org/2000/svg" x="0px" y="0px"
width="50" height="50"
viewBox="0 0 172 172"
style=" fill:#000000;"><g fill="none" fill-rule="nonzero" stroke="none" stroke-width="1" stroke-linecap="butt" stroke-linejoin="miter" stroke-miterlimit="10" stroke-dasharray="" stroke-dashoffset="0" font-family="none" font-weight="none" font-size="none" text-anchor="none" style="mix-blend-mode: normal"><path d="M0,172v-172h172v172z" fill="none"></path><g fill="#ffffff"><path d="M40.13333,11.46667c-6.33533,0 -11.46667,5.13133 -11.46667,11.46667v126.13333c0,6.33533 5.13133,11.46667 11.46667,11.46667h72.0362c-0.02509,0.20109 -0.06707,0.37837 -0.08958,0.58229c-2.40866,1.17802 -3.67932,3.86799 -3.05936,6.47663c0.61996,2.60864 2.96497,4.43933 5.64608,4.40775h1.90364c0.61915,0.10233 1.2509,0.10233 1.87005,0h43.99661c0.61915,0.10233 1.2509,0.10233 1.87005,0h1.95964c2.69033,0.04282 5.04857,-1.7908 5.67009,-4.40871c0.62152,-2.61791 -0.66088,-5.31585 -3.08337,-6.48687c-1.22369,-11.06061 -6.28325,-17.93439 -10.91797,-23.50442c4.63632,-5.57195 9.69651,-12.44829 10.91797,-23.51562c2.40866,-1.17802 3.67932,-3.86799 3.05936,-6.47663c-0.61996,-2.60864 -2.96497,-4.43933 -5.64608,-4.40775h-1.98203c-0.32192,-0.05381 -0.64784,-0.08003 -0.97422,-0.07839c-0.27775,0.00602 -0.55469,0.03222 -0.82864,0.07839h-19.14844v-80.26667c0,-6.33533 -5.13133,-11.46667 -11.46667,-11.46667zM57.33333,45.86667c3.1648,0 5.73333,2.56853 5.73333,5.73333c0,3.1648 -2.56853,5.73333 -5.73333,5.73333c-3.1648,0 -5.73333,-2.56853 -5.73333,-5.73333c0,-3.1648 2.56853,-5.73333 5.73333,-5.73333zM80.26667,45.86667h34.4c3.1648,0 5.73333,2.56853 5.73333,5.73333c0,3.1648 -2.56853,5.73333 -5.73333,5.73333h-34.4c-3.1648,0 -5.73333,-2.56853 -5.73333,-5.73333c0,-3.1648 2.56853,-5.73333 5.73333,-5.73333zM57.33333,68.8c3.1648,0 5.73333,2.56853 5.73333,5.73333c0,3.1648 -2.56853,5.73333 -5.73333,5.73333c-3.1648,0 -5.73333,-2.56853 -5.73333,-5.73333c0,-3.1648 2.56853,-5.73333 5.73333,-5.73333zM80.26667,68.8h34.4c3.1648,0 5.73333,2.56853 5.73333,5.73333c0,3.1648 -2.56853,5.73333 -5.73333,5.73333h-34.4c-3.1648,0 -5.73333,-2.56853 -5.73333,-5.73333c0,-3.1648 2.56853,-5.73333 5.73333,-5.73333zM57.33333,91.73333c3.1648,0 5.73333,2.56853 5.73333,5.73333c0,3.1648 -2.56853,5.73333 -5.73333,5.73333c-3.1648,0 -5.73333,-2.56853 -5.73333,-5.73333c0,-3.1648 2.56853,-5.73333 5.73333,-5.73333zM80.26667,91.73333h34.4c3.1648,0 5.73333,2.56853 5.73333,5.73333c0,3.1648 -2.56853,5.73333 -5.73333,5.73333h-34.4c-3.1648,0 -5.73333,-2.56853 -5.73333,-5.73333c0,-3.1648 2.56853,-5.73333 5.73333,-5.73333zM57.33333,114.66667c3.1648,0 5.73333,2.56853 5.73333,5.73333c0,3.1648 -2.56853,5.73333 -5.73333,5.73333c-3.1648,0 -5.73333,-2.56853 -5.73333,-5.73333c0,-3.1648 2.56853,-5.73333 5.73333,-5.73333zM80.26667,114.66667h31.90286c0.54545,4.3718 1.67888,8.10449 3.15781,11.33229c-0.22732,0.02745 -0.42599,0.13438 -0.66067,0.13438h-34.4c-3.1648,0 -5.73333,-2.56853 -5.73333,-5.73333c0,-3.1648 2.56853,-5.73333 5.73333,-5.73333zM123.68099,114.66667h33.57135c-1.27893,9.04796 -5.62341,13.26312 -10.7388,19.19323l-3.225,3.74011l3.225,3.74011c5.11539,5.93011 9.45987,10.14527 10.7388,19.19323h-4.10963c-3.8407,-4.90464 -8.9743,-9.00312 -12.67604,-9.00312c-3.70174,0 -8.83534,4.09848 -12.67604,9.00312h-4.10963c1.27893,-9.04796 5.62341,-13.26312 10.7388,-19.19323l3.225,-3.74011l-3.225,-3.74011c-5.11539,-5.93011 -9.45987,-10.14527 -10.7388,-19.19323z"></path></g></g></svg>