<svg xmlns="http://www.w3.org/2000/svg" x="0px" y="0px" width="30" height="30" viewBox="0 0 172 172" style=" fill:#000000;">
    <g fill="none" fill-rule="nonzero" stroke="none" stroke-width="1" stroke-linecap="butt" stroke-linejoin="miter" stroke-miterlimit="10" stroke-dasharray="" stroke-dashoffset="0" font-family="none" font-weight="none" font-size="none" text-anchor="none" style="mix-blend-mode: normal">
        <path d="M0,172v-172h172v172z" fill="none"></path>
        <g fill="#ffffff">
            <path d="M86,3.61469c-0.7482,0 -1.49345,0.23731 -2.12985,0.71891l-79.12,61.75203c-1.4792,1.1696 -1.75413,3.33062 -0.58453,4.84422c1.1696,1.4792 3.33062,1.75413 4.84422,0.58453l4.75016,-3.70875v90.43437c0,1.892 1.548,3.44 3.44,3.44h44.72v-68.8h48.16v68.8h44.72c1.892,0 3.44,-1.548 3.44,-3.44v-90.43437l4.75015,3.70875c0.6536,0.4816 1.37305,0.72563 2.12985,0.72563c1.032,0 2.02638,-0.45015 2.71437,-1.31015c1.1696,-1.5136 0.89467,-3.67462 -0.58453,-4.84422l-26.20985,-20.43844v-25.00719c0,-1.892 -1.548,-3.44 -3.44,-3.44h-13.76c-0.9288,0 -1.79203,0.37518 -2.44563,0.99438c-0.6192,0.6536 -0.99437,1.51683 -0.99437,2.44562v8.90906l-32.27015,-25.21547c-0.6364,-0.4816 -1.38165,-0.71891 -2.12985,-0.71891zM68.8,100.10265v61.57735h34.4v-61.57735zM92.88,123.84c1.892,0 3.44,1.548 3.44,3.44c0,1.892 -1.548,3.44 -3.44,3.44c-1.892,0 -3.44,-1.548 -3.44,-3.44c0,-1.892 1.548,-3.44 3.44,-3.44z"></path>
        </g>
    </g>
</svg>